/* XPM */
static char *_d4d756e9bc2437da0bd48c50272b93czhD8PPmxvvR3rIiS[] = {
/* columns rows colors chars-per-pixel */
"32 32 2 1 ",
"  c black",
". c white",
/* pixels */
"                                ",
"                                ",
"...........  ..............  ...",
"...........  ..............  ...",
"...........  ..............  ...",
"...........  ..............  ...",
"...........  ..............  ...",
"...........  ..............  ...",
"                                ",
"                                ",
"....  ..............  ..........",
"....  ..............  ..........",
"....  ..............  ..........",
"....  ..............  ..........",
"....  ..............  ..........",
"....  ..............  ..........",
"                                ",
"                                ",
"...........  ..............  ...",
"...........  ..............  ...",
"...........  ..............  ...",
"...........  ..............  ...",
"...........  ..............  ...",
"...........  ..............  ...",
"                                ",
"                                ",
"....  ..............  ..........",
"....  ..............  ..........",
"....  ..............  ..........",
"....  ..............  ..........",
"....  ..............  ..........",
"....  ..............  .........."
};
