/* XPM */
static char * carrotsprite2_xpm[] = {
"32 32 15 1",
" 	c #8CBEEC",
".	c #77A1E6",
"+	c #45283C",
"@	c #C1E58F",
"#	c #92C970",
"$	c #507454",
"%	c #39260E",
"&	c #E6740C",
"*	c #A83811",
"=	c #CF4C06",
"-	c #F9DB9D",
";	c #FF9D1C",
">	c #3A0808",
",	c #732000",
"'	c #9D9CA5",
"               ..             ..",
"               .               .",
"               .  ..       ..  .",
"               .  ..       ..  .",
"               .               .",
"               .               .",
"           +++ .  +++          .",
"          +@@@+. +@@@++        .",
"        ++##@@@+ +$##@#+       .",
"       +#######$+$#####+       .",
"       +######$$$#####+        .",
"  ..    +##+++++%++$++         .",
"  ..     ++.+&&*%*&+           .",
"           +=-&&*&&&+          .",
".         +&---;&;;&&+         .",
"..........+&--;;;;;;&+         .",
".        +&&&;;;;;;;;=+        .",
"         +&-&&;;;;&&-=+        .",
"  ..     +&&>>&;;&>>-=+        .",
"  ..     +&>-->&&>-->=+        .",
"         +&>-->&&>-->=+        .",
"         +;;,,&&&&,,&;+        .",
"         +;;&&&&&&&&;;+        .",
"         *;;;&&&&&&;;;*        .",
"         *&;;;&&&&;;;&*        .",
"         *&;;;&&&&;;;&*        .",
"          *&;;;;;;;;;*         .",
"          *&&;;;;;;;&*     ..  .",
"          +*&&&++&&&*+     ..  .",
"           +&&+. +&&+          .",
"            *&+..+&*          ..",
"               '................"};
