/* XPM */
static char * exit_xpm[] = {
"32 32 11 1",
" 	c #8CBEEC",
".	c #77A1E6",
"+	c #45283C",
"@	c #92C970",
"#	c #3A0808",
"$	c #507454",
"%	c #E6740C",
"&	c #F9DB9D",
"*	c #A83811",
"=	c #FF9D1C",
"-	c #C1E58F",
"               ..             ..",
"               .               .",
"               .  ..       ..  .",
"               .  ..       ..  .",
"               .               .",
"               .               .",
"               .++             .",
"               +@@+            .",
"             ++#$@+            .",
"            +%&*#*%+           .",
"           +%&&&*=&%+          .",
"  ..   ++ +%==&=&&==%+ ++      .",
"  ..  +--+*==========*+--+     .",
"      +@-*%%=======%%%*-@+     .",
".     +$$*%#%%#%%#%%#%*$$+     .",
".......+@+%%##%%%%##%%+@+      .",
".     +@$+%=%%%%%%%%=%+$@+     .",
"      +-@$*===%%%%===*$@-+     .",
"  ..  +$--$*%=======*$--$+     .",
"  ..   +@@@--$*@@$*$--@@+      .",
"      +$$$@@-@--@@--$-$$$+     .",
"      +@-$@$@$-@@$@@@$--@+     .",
"      +--++$$ $$$ $$$++--+     .",
"       ++      .       ++      .",
"               .               .",
"               .               .",
"               .               .",
"               .  ..       ..  .",
"               .  ..       ..  .",
"               .               .",
"               ..             ..",
"               ................."};
