/* XPM */
static char *a6470b7797d0478fb0234af97ce60d61b66jznMn5ESpVmU4[] = {
/* columns rows colors chars-per-pixel */
"32 32 10 1 ",
"  c None",
". c #3A0808",
"X c #45283C",
"o c #507454",
"O c #A83811",
"+ c #E6740C",
"@ c #FF9D1C",
"# c #92C970",
"$ c #F9DB9D",
"% c #C1E58F",
/* pixels */
"                                ",
"                                ",
"                                ",
"                                ",
"                                ",
"                                ",
"                XX              ",
"               X##X             ",
"             XX.o#X             ",
"            X+$O.O+X            ",
"           X+$$$O@$+X           ",
"       XX X+@@$@$$@@+X XX       ",
"      X%%XO@@@@@@@@@@OX%%X      ",
"      X#%O++@@@@@@@+++O%#X      ",
"      XooO+.++.++.++.+OooX      ",
"       X#X++..++++..++X#X       ",
"      X#oX+@++++++++@+Xo#X      ",
"      X%#oO@@@++++@@@Oo#%X      ",
"      Xo%%oO+@@@@@@@Oo%%oX      ",
"       X###%%oO##oOo%%##X       ",
"      Xooo##%#%%##%%o%oooX      ",
"      X#%o#o#o%##o###o%%#X      ",
"      X%%XXoo ooo oooXX%%X      ",
"       XX              XX       ",
"                                ",
"                                ",
"                                ",
"                                ",
"                                ",
"                                ",
"                                ",
"                                "
};
