/* XPM */
static char * hero_xpm[] = {
"32 32 11 1",
" 	c #8CBEEC",
".	c #77A1E6",
"+	c #2A304E",
"@	c #FCFEFE",
"#	c #94A0BA",
"$	c #667291",
"%	c #1C1A30",
"&	c #1C121B",
"*	c #5E2C29",
"=	c #FC5003",
"-	c #FDA216",
"               ..             ..",
"               .               .",
"               .  ..       ..  .",
"               .  ..       ..  .",
"               .               .",
"               .               .",
"            ++++++             .",
"          ++@@@@@#++           .",
"        ++@@@@@@@@##+          .",
"       +@@@@@$$$$$$$#+         .",
"      +@@@@@$$$$$$$$$+         .",
"  .. +@@@@@@$$$++$$$$++        .",
"  ..+@@@@@@$$$+@@$$$$@+        .",
"   +@@@@@@@$$$%@@$$$$@+        .",
".  +@@@$@@@$$$%%%$&&$%$+       .",
"...++++$@@@$$$$$$$&&&$$+       .",
".     +#@@@$$$$$$$&&&$$+       .",
"      +@@@@@$$$$$$++&$$+       .",
"  ..   +@@@@$$$$$$$$$$+        .",
"  ..   +@@@@@$$$$@##$$+        .",
"        +@@@@@@@@@###+         .",
"       ++**@@@@@@###+          .",
"      +@@@#****####*$+         .",
"     +@@@@@@@@#****$$+         .",
"    +@@@@@@@@@@@=--#$$+        .",
"    +@@@@$@@@@@@=--#$$+        .",
"    +@@@+$@@@@@@=--#$$+        .",
"     ++++#@@@@@@@##$++     ..  .",
"        +@@@@@@@##$$$+     ..  .",
"        +@@@@@@+$$$$$+         .",
"        +@@@@@+.+$$$$+        ..",
"        +@@@@+ .+$$$$+.........."};
