/* XPM */
static char * monster_xpm[] = {
"32 32 9 1",
" 	c #8CBEEC",
".	c #77A1E6",
"+	c #04193F",
"@	c #0FEFFB",
"#	c #0696DB",
"$	c #03396B",
"%	c #FCFEFE",
"&	c #C3242F",
"*	c #E7333B",
"               ..             ..",
"               .               .",
"               .  ..       ..  .",
"               .  ..       ..  .",
"               .               .",
"               .               .",
"             +++++             .",
"           ++@@@##++           .",
"          +@@@@@@#$$+          .",
"         +@@@@@@@++$$+         .",
"        +@@@@@@@@++$$$+        .",
"  ..    +@@@+++@@##$$++        .",
"  ..   +@@@++%%+@###++%+       .",
"       +@@@++%%+@###++%+       .",
".      +@@@+++++@###++++       .",
".......+@@@@+++@####$+++       .",
".      +@@@@@@@@####$$$+       .",
"        +@@@@@@####$$$+        .",
"  ..    +@@@@####++$$$+        .",
"  ..     +#########$$+         .",
"         +&&######$$$+         .",
"         +**&&&$$$$$&+         .",
"        +$+****&&&&&*+         .",
"        +#$++********+         .",
"       +####$+******+$+        .",
"       +####$$++****$$+        .",
"       +###$##$$++*+$$+        .",
"        +$$#####$$+$++     ..  .",
"         +#####$$$$$+      ..  .",
"         +####++$$$$+          .",
"         +####++$$$+          ..",
"         +###+ +$$$+............"};
