/* XPM */
static char *_dd62a8e4db0402bcc330f0e72ba3335p6dX61JOQJDyWyWr[] = {
/* columns rows colors chars-per-pixel */
"112 96 12 1 ",
"  c None",
". c #363132",
"X c #355033",
"o c #403D42",
"O c #565A5C",
"+ c #666A70",
"@ c #5F8F5B",
"# c #88B183",
"$ c #9AA0AA",
"% c #9ADB9B",
"& c #E7E7E7",
"* c white",
/* pixels */
"  ********************************************    ************  oo+OOOOOO+oo+O.ooo+OOOOOO+oo+O.ooo+OOOOOO+oo+O.o",
" *****&&%&************&&%&************&&%&*****  *****&&%&***** $oo.OOOO.ooo..oo$oo.OOOO.ooo..oo$oo.OOOO.ooo..oo",
"&%&**&&%#%&**%&*&%&**&&%#%&**%&*&%&**&&%#%&**%&*&%&**&&%#%&**%&*+$ooo.O.ooooooo$+$ooo.O.ooooooo$+$ooo.O.ooooooo$",
"%%&&%*%###&%*#%*%%&&%*%###&%*#%*%%&&%*%###&%*#%*%%&&%*%###&%*#%*O+$ooo.ooo$$oo$+O+$ooo.ooo$$oo$+O+$ooo.ooo$$oo$+",
"%#&%%&##@#&%&#%&%#&%%&##@#&%&#%&%#&%%&##@#&%&#%&%#&%%&##@#&%&#%&OOO+$oooo$++$oo+OOO+$oooo$++$oo+OOO+$oooo$++$oo+",
"##%%#%#@@@#%&@#%##%%#%#@@@#%&@#%##%%#%#@@@#%&@#%##%%#%#@@@#%&@#%OOOOO.oo$++OOoo$OOOOO.oo$++OOoo$OOOOO.oo$++OOoo$",
"@#%##%#@X@@#&X@%@#%##%#@X@@#&X@%@#%##%#@X@@#&X@%@#%##%#@X@@#&X@%+OOO.oo$+OO.oooo+OOO.oo$+OO.oooo+OOO.oo$+OO.oooo",
"@@#@#%@+.X@#%X@#@@#@#%@+.X@#%X@#@@#@#%@+.X@#%X@#@@#@#%@+.X@#%X@#oo..oo$++OOoo$$ooo..oo$++OOoo$$ooo..oo$++OOoo$$o",
"X@X@#%++O.X@#.X@X@X@#%++O.X@#.X@X@X@#%++O.X@#.X@X@X@#%++O.X@#.X@$oooo$++OO.o$+++$oooo$++OO.o$+++$oooo$++OO.o$+++",
"X@.X##+OO.X@%+.XX@.X##+OO.X@%+.XX@.X##+OO.X@%+.XX@.X##+OO.X@%+.X++$ooo+OO.oo++++++$ooo+OO.oo++++++$ooo+OO.oo++++",
"X@.X%@oo..X@@++OX@.X%@oo..X@@++OX@.X%@oo..X@@++.X@.X%@oo..X@@++.OOO$oooo.oooo++OOOO$oooo.oooo++OOOO$oooo.oooo++O",
".O.X@ooooo.X@+OOOO.X@ooooo.X@+OOOO.X@ooooo.X@+O..O.X@ooooo.X@+O.OOOOoooooo$oo+OOOOOOoooooo$o.+OOOOOOoooooo$oo+OO",
" ..X@oo$o$.X@o+OOO.X@oo$o$.X@o+OOO.X@oo$o$.X@o+. ..X@oo$o$.X@o+.OO...oo$o$+$oo+OOO...oo$.$+$o.+OOO...oo$o$+$oo+O",
" .o.oo$+oo.X@ooO.oo.oo$+oo.X@ooO.oo.oo$+oo.X@o.  .o.oo$+oo.X@o. .ooooo$+oo++$ooO.ooooo$+.o++$o.O.ooooo$+oo++$ooO",
" .$$$+++$oo.O$oooo$$$+++$oo.O$oooo$$$+++$oo.O$.  .$$$+++$oo.O$. oo$$$+++$oo+O$o. .$$$+++$..+O$...o$$$+++$oo+O$oo",
".$++OOOO+$o+OOOoo$++OOOO+$o+OOOoo$++OOOO+$o+OOO..$++OOOO+$o+OOO.o$++OOOO+$o+OO.   .......  ...   .++OOOO+$o+OOOo",
" .+OOOOOO+oo+O.ooo+OOOOOO+oo+O.ooo+OOOOOO+oo+O.  .+OOOOOO+oo+O. oo+OOOOOO+oo+O.                  .+OOOOOO+oo+O.o",
" .o.OOOO.ooo..oo$oo.OOOO.ooo..oo$oo.OOOO.ooo..o. .o.OOOO.ooo..o.$oo.OOOO.ooo..o.                 .o.OOOO.ooo..oo",
".$ooo.O.ooooooo$+$ooo.O.ooooooo$+$ooo.O.ooooooo..$ooo.O.ooooooo.+$ooo.O.ooooooo.                .$ooo.O.ooooooo$",
".+$ooo.ooo$$oo$+O+$ooo.ooo$$oo$+O+$ooo.ooo$$oo$..+$ooo.ooo$$oo$.O+$ooo.ooo$$oo$.                .+$ooo.ooo$$oo$+",
".OO+$oooo$++$oo+OOO+$oooo$++$oo+OOO+$oooo$++$o. .OO+$oooo$++$o. OOO+$oooo$++$o.                 .OO+$oooo$++$oo+",
".OOOO.oo$++OOoo$OOOOO.oo$++OOoo$OOOOO.oo$++OOo. .OOOO.oo$++OOo. OOOOO.oo$++OOo.                 .OOOO.oo$++OOoo$",
".OOO.oo$+OO.oooo+OOO.oo$+OO.oooo+OOO.oo$+OO.oo. .OOO.oo$+OO.oo. +OOO.oo$+OO.oo.                 .OOO.oo$+OO.oooo",
" ...oo$++OOoo$$ooo..oo$++OOoo$$ooo..oo$++OOoo$$. ...oo$++OOoo$$.oo..oo$++OOoo$$.                 ...oo$++OOoo$$o",
" .ooo$++OO.o$+++$oooo$++OO.o$+++$oooo$++OO.o$++. .ooo$++OO.o$++.$oooo$++OO.o$++.                 .ooo$++OO.o$+++",
".+$ooo+OO.oo++++++$ooo+OO.oo++++++$ooo+OO.oo+++..+$ooo+OO.oo+++.++$ooo+OO.oo+++.                .+$ooo+OO.oo++++",
".OO$oooo.oooo++OOOO$oooo.oooo++OOOO$oooo.oooo++..OO$oooo.oooo++.OOO$oooo.oooo++.                .OO$oooo.oooo++O",
".OOOoooooo$oo+OOOOOOoooooo$oo+OOOOOOoooooo$oo+O..OOOoooooo$oo+O.OOOOoooooo$oo+O.                .OOOoooooo$oo+OO",
".O...oo$o$+$oo+OOO...oo$o$+$oo+OOO...oo$o$+$oo+..O...oo$o$+$oo+.OO...oo$o$+$oo+.                .O...oo$o$+$oo+O",
" .oooo$+oo++$ooO.ooooo$+oo++$ooO.ooooo$+oo++$o.  .oooo$+oo++$o. .ooooo$+oo++$o.                  .oooo$+oo++$ooO",
" .$$$+++$oo+O$oooo$$$+++$oo+O$oooo$$$+++$oo+O$.  .$$$+++$oo+O$. oo$$$+++$oo+O$.                  .$$$+++$oo+O$oo",
".$++OOOO+$o+OOOoo$++OOOO+$o+OOOoo$++OOOO+$o+OOO..$++OOOO+$o+OOO.o$++OOOO+$o+OOO.                .$++OOOO+$o+OOOo",
" .+OOOOOO+oo+O.ooo+OOOOOO+oo+O.ooo+OOOOOO+oo+O.  .+OOOOOO+oo+O. oo+OOOOOO+oo+.********************.OOOOOO+oo+O.o",
" .o.OOOO.ooo..oo$oo.OOOO.ooo..oo$oo.OOOO.ooo..o. .o.OOOO.ooo..o.$oo.OOOO.ooo.&********&&%&********&.OOOO.ooo..oo",
".$ooo.O.ooooooo$+$ooo.O.ooooooo$+$ooo.O.ooooooo..$ooo.O.ooooooo.+$ooo.O.ooo.&%&*&%&**&&%#%&**%&**&%&..O.ooooooo$",
".+$ooo.ooo$$oo$+O+$ooo.ooo$$oo$+O+$ooo.ooo$$oo$..+$ooo.ooo$$oo$.O+$ooo.ooo$.%%#&%%&&%*%###&%*#%*&#%%.o.ooo$$oo$+",
".OO+$oooo$++$oo+OOO+$oooo$++$oo+OOO+$oooo$++$o. .OO+$oooo$++$o. OOO+$oooo$+.##@#%#&%%&##@#&%&#%&#@##.oooo$++$oo+",
".OOOO.oo$++OOoo$OOOOO.oo$++OOoo$OOOOO.oo$++OOo. .OOOO.oo$++OOo. OOOOO.oo$++.#@@@##%%#%#@@@#%&@#%@@@#..oo$++OOoo$",
".OOO.oo$+OO.oooo+OOO.oo$+OO.oooo+OOO.oo$+OO.oo. .OOO.oo$+OO.oo. +OOO.oo$+OO.#@X@@#%##%#@X@@#&X@%@X@#.oo$+OO.oooo",
" ...oo$++OOoo$$ooo..oo$++OOoo$$ooo..oo$++OOoo$$. ...oo$++OOoo$$.oo..oo$++OOX@$.X@@#@#%@+.X@#%X@#X..@Xo$++OOoo$$o",
" .ooo$++OO.o$+++$oooo$++OO.o$+++$oooo$++OO.o$++. .ooo$++OO.o$++.$oooo$++OO.o$+++X@X@#%++O.X@#.X@$oooo$++OO.o$+++",
".+$ooo+OO.oo++++++$ooo+OO.oo++++++$ooo+OO.oo+++..+$ooo+OO.oo+++.++$ooo+OO.oo++++X@.X##+OO.X@%+.X++$ooo+OO.oo++++",
".OO$oooo.oooo++OOOO$oooo.oooo++OOOO$oooo.oooo++..OO$oooo.oooo++.OOO$oooo.oooo++OX@.X%@oo..X@@++OOOO$oooo.oooo++O",
".OOOoooooo$o.+OOOOOOoooooo$o.+OOOOOOoooooo$o.+O..OOOoooooo$o.+O.OOOOoooooo$oo+OOOO.X@ooooo.X@+OOOOOOoooooo$oo+OO",
".O...oo$.$+$o.+OOO...oo$.$+$o.+OOO...oo$.$+$o.+..O...oo$.$+$o.+.OO...oo$o$+$oo+OOO.X@oo$o$.X@o+OOO...oo$o$+$oo+O",
" .oooo$+.o++$o.O.ooooo$+.o++$o.O.ooooo$+.o++$o.  .oooo$+.o++$o. .ooooo$+oo++$ooO.oo.oo$+oo.X@ooO.ooooo$+oo++$ooO",
" .$$$+++$..+O$.. .$$$+++$..+O$.. .$$$+++$..+O$.  .$$$+++$..+O$. oo$$$+++$oo+O$oooo$$$+++$oo.O$oooo$$$+++$oo+O$oo",
"  .......  ...    .......  ...    .......  ...    .......  ...  o$++OOOO+$o+OOOoo$++OOOO+$o+OOOoo$++OOOO+$o+OOOo",
"  ********************************************    ************                                                  ",
" *****&&%&************&&%&************&&%&*****  *****&&%&*****                                                 ",
"&%&**&&%#%&**%&*&%&**&&%#%&**%&*&%&**&&%#%&**%&*&%&**&&%#%&**%&*                                                ",
"%%&&%*%###&%*#%*%%&&%*%###&%*#%*%%&&%*%###&%*#%*%%&&%*%###&%*#%*                                                ",
"%#&%%&##@#&%&#%&%#&%%&##@#&%&#%&%#&%%&##@#&%&#%&%#&%%&##@#&%&#%&                                                ",
"##%%#%#@@@#%&@#%##%%#%#@@@#%&@#%##%%#%#@@@#%&@#%##%%#%#@@@#%&@#%                                                ",
"@#%##%#@X@@#&X@%@#%##%#@X@@#&X@%@#%##%#@X@@#&X@%@#%##%#@X@@#&X@%                                                ",
"@@#@#%@+.X@#%X@#@@#@#%@+.X@#%X@#@@#@#%@+.X@#%X@#@@#@#%@+.X@#%X@#                                                ",
"X@X@#%++O.X@#.X@X@X@#%++O.X@#.X@X@X@#%++O.X@#.X@X@X@#%++O.X@#.X@                                                ",
"X@.X##+OO.X@%+.XX@.X##+OO.X@%+.XX@.X##+OO.X@%+.XX@.X##+OO.X@%+.X                                                ",
"X@.X%@oo..X@@++OX@.X%@oo..X@@++OX@.X%@oo..X@@++.X@.X%@oo..X@@++.                                                ",
".O.X@ooooo.X@+OOOO.X@ooooo.X@+OOOO.X@ooooo.X@+O..O.X@ooooo.X@+O.                                                ",
".O.X@oo$.$.X@.+OOO.X@oo$.$.X@.+OOO.X@oo$.$.X@.+..O.X@oo$.$.X@.+.                                                ",
" .o.oo$+.o.X@o.O.oo.oo$+.o.X@o.O.oo.oo$+.o.X@o.  .o.oo$+.o.X@o.                                                 ",
" .$$$+++$...O$.. .$$$+++$...O$.. .$$$+++$...O$.  .$$$+++$...O$.                                                 ",
"  .......  ...    .......  ...    .......  ...    .......  ...                                                  ",
"*                              ***                                                            **                ",
"**                            ******                                                        ****                ",
"***                          ***&%****                                                    ****%&                ",
"****                        ****%%******                                                ******%%                ",
"&&***                      ***&&%#&&******                                            ******&&#%                ",
"%%&***                    ***&%%##&%%*&%****                                        ****%&*%%&##                ",
"@#%&***                  ***&%#@@#%%%&%#%*****                                    *****%#%&%%%#@                ",
"@##%&***                ***&%##@@@%##%###%&*****                                *****&%###%##%@@                ",
"X@#%&****              ****&%#@XX@#@#%#@@#&%*%****                            ****%*%&#@@#%#@#@X                ",
"X@##%&&***            ***&&%##@XX@X@#%#@@@&%*#&*****                        *****&#*%&@@@#%#@X@X                ",
"X@X@#%%&***          ***&%%#@X@XX@.X#%@.X@#%&#%*&%****                    ****%&*%#&%#@Xo@%#X.@X                ",
".@.@#%#%&***        ***&%#%#@.@.O+.X##.o.X@#&@%&%%&*****                *****&%%&%@&#@X.oo##X.$+                ",
"OO.X#%#@%%***      ***%%@#%#X.+OOO.X%@ooo.@#&X#%%#&&******            ******&&#%%#X&#@.oo$@%X.o+                ",
".o.X#%#@@%&***    ***&%@@#%#X.oOOO.X@.oo$.X@%X@%##&%%*&%****        ****%&*%%&##%@X%@X.o$++@X.o$                ",
"oo.X%@++X@%****  ****%@X$o@%X.oo+OO.@oo$+.X@#.@#@#%%%&%%&*****    *****&%%&%%%#@#@.#@X.$+OO@.ooo                ",
"o$+X@@OO.@#%********%#@.+$@@XOOooo..oo$++OX@%$X@@@%##%##%&************&%##%##%@@@X.%@X$++OOoo$$o                ",
"oo+.@OOOOX@%&&****&&%@XOO+o@.O.o$oooo$++OO.X@++.X@#@#%#@@%&%*%****%*%&%@@#%#@#@X.oo@X.++OO.o$+++                ",
"$oo.OOOO..@#%#&**&#%#@.O.ooo..oo++$ooo+OO..X@+++X@X@#%#@@#&%*#&**&#*%&#@@#%#@X@X++$@X.+OO.oo++++                ",
"+$ooo.O.o.X#%@&**&@%#X..ooooooo$OOO$oooo.o.X@++OX@.X#%@oX@#%&#%**%#&%#@X.@%#X.@XOOO@X.oo.oooo++O                ",
"O+$ooo.oo.X@%X#&&#X%@X.ooo$$oo$+OOOOoooooo$.@+OOOO.X##oo.X@#&@%&&%@&#@X.oo##X.OOOOO@.ooooo$oo+OO                ",
"OOO+$oooo$X@#X@%%@X#@Xooo$++$oo+OO...oo$o$+$oo+OOO.X%@o$o.@#&X#%%#X&#@.$o$@%X.+OOO...oo$o$+$oo+O                ",
"OOOOO.oo$+.@%.@%%@.%@.oo$++OOoo$.ooooo$+oo++$ooO.o.X@o$+o.X@%X@%%@X%@X.+oo+@X.oO.ooooo$+oo++$ooO                ",
"+OOO.oo$+O.X@oX##XO@X.o$+OO.oooooo$$$+++$oo+O$oooo$.@+++$.X@#.@##@.#@X.+$oo@.$oooo$$$+++$oo+O$oo                ",
"oo..oo$++O.X@$.@@..@X.$++OOoo$$oo$++OOOO+$o+OOOoo$++OOOO+$X@%OX@@X+%@XOO+$o+OOOoo$++OOOO+$o+OOOo                ",
"$oooo$++OO.X@+.XX.o@X.++OO.o$+++oo+OOOOOO+oo+O.ooo+OOOOOO+.X@O.XX.+@X.OOO+oo+O.ooo+OOOOOO+oo+O.o                ",
"++$ooo+OO.o.@+++++$@.o+OO.oo++++$oo.OOOO.ooo..oo$oo.OOOO.o.X@.oo$oo@X.OO.ooo..oo$oo.OOOO.ooo..oo                ",
"OOO$oooo.oooo++OOOO$oooo.oooo++O+$ooo.O.ooooooo$+$ooo.O.oo.X@oo$+$o@X.O.ooooooo$+$ooo.O.ooooooo$                ",
"OOOOoooooo$oo+OOOOOOoooooo$oo+OOO+$ooo.ooo$$oo$+O+$ooo.ooo.X@o$+O+$@X..ooo$$oo$+O+$ooo.ooo$$oo$+                ",
"OO...oo$o$+$oo+OOO...oo$o$+$oo+OOOO+$oooo$++$oo+OOO+$oooo$+.@oo+OOO@.oooo$++$oo+OOO+$oooo$++$oo+                ",
".ooooo$+oo++$ooO.ooooo$+oo++$ooOOOOOO.oo$++OOoo$OOOOO.oo$++OOoo$OOOOO.oo$++OOoo$OOOOO.oo$++OOoo$                ",
"oo$$$+++$oo+O$oooo$$$+++$oo+O$oo+OOO.oo$+OO.oooo+OOO.oo$+OO.oooo+OOO.oo$+OO.oooo+OOO.oo$+OO.oooo                ",
"o$++OOOO+$o+OOOoo$++OOOO+$o+OOOooo..oo$++OOoo$$ooo..oo$++OOoo$$ooo..oo$++OOoo$$ooo..oo$++OOoo$$o                "
};
