/* XPM */
static char * win_xpm[] = {
"96 64 295 2",
"  	c #FFFFFF",
". 	c #999998",
"+ 	c #1A1A1A",
"@ 	c #FDFDFD",
"# 	c #FCFCFC",
"$ 	c #1C1C1C",
"% 	c #1B1B1B",
"& 	c #D5D5D5",
"* 	c #CCCCCC",
"= 	c #A7A7A7",
"- 	c #F6F6F6",
"; 	c #A6A6A6",
"> 	c #EFEFEF",
", 	c #E2E2E2",
"' 	c #7F7F7E",
") 	c #59595A",
"! 	c #EBEBEA",
"~ 	c #E6E6E5",
"{ 	c #EBEBEB",
"] 	c #E5E5E5",
"^ 	c #E8E8E8",
"/ 	c #B3B4B3",
"( 	c #B6B6B6",
"_ 	c #737373",
": 	c #B2B2B2",
"< 	c #707070",
"[ 	c #FEFFFE",
"} 	c #989998",
"| 	c #181818",
"1 	c #F5F6F5",
"2 	c #FAFAFA",
"3 	c #CFCFCF",
"4 	c #F5F5F5",
"5 	c #D1D1D1",
"6 	c #BBBBBA",
"7 	c #9C9C9C",
"8 	c #939393",
"9 	c #89898A",
"0 	c #191919",
"a 	c #888888",
"b 	c #F1F1F1",
"c 	c #A2A2A2",
"d 	c #F7F7F7",
"e 	c #DBDBDB",
"f 	c #F8F8F8",
"g 	c #7F7F7F",
"h 	c #585858",
"i 	c #F7F8F7",
"j 	c #EAEBEA",
"k 	c #DFE0DF",
"l 	c #DEDFDE",
"m 	c #929292",
"n 	c #F6F7F6",
"o 	c #B7B7B7",
"p 	c #717171",
"q 	c #ADADAD",
"r 	c #6C6C6D",
"s 	c #FBFBFB",
"t 	c #E4E5E5",
"u 	c #EEEFEE",
"v 	c #C0C1C0",
"w 	c #9D9D9D",
"x 	c #EDEEED",
"y 	c #DFDFDF",
"z 	c #D7D7D7",
"A 	c #979898",
"B 	c #E5E6E5",
"C 	c #E7E8E7",
"D 	c #525252",
"E 	c #E6E7E6",
"F 	c #F0F0EF",
"G 	c #EAEAEA",
"H 	c #D0D1D0",
"I 	c #D7D8D6",
"J 	c #D0D0CF",
"K 	c #D2D3D2",
"L 	c #6F6F6E",
"M 	c #A3A4A3",
"N 	c #676767",
"O 	c #F2F3F2",
"P 	c #B8B8B7",
"Q 	c #949594",
"R 	c #959695",
"S 	c #F4F4F3",
"T 	c #EDEDED",
"U 	c #171717",
"V 	c #CBCCCB",
"W 	c #E7E7E6",
"X 	c #EFEFEE",
"Y 	c #858585",
"Z 	c #BBBBBB",
"` 	c #9B9C9B",
" .	c #A8A9A8",
"..	c #FEFEFE",
"+.	c #6E6F6E",
"@.	c #A3A3A3",
"#.	c #9A9A99",
"$.	c #242424",
"%.	c #E4E5E4",
"&.	c #ECEDEC",
"*.	c #8A8A8A",
"=.	c #1E1E1E",
"-.	c #232324",
";.	c #C1C1C1",
">.	c #E0E1DF",
",.	c #919191",
"'.	c #F8F8F7",
").	c #C4C5C4",
"!.	c #FBFBFA",
"~.	c #CFD0CF",
"{.	c #696969",
"].	c #686868",
"^.	c #FEFEFD",
"/.	c #F9F9F9",
"(.	c #1F1F1F",
"_.	c #202020",
":.	c #919291",
"<.	c #ACADAD",
"[.	c #E4E4E3",
"}.	c #F9F9F8",
"|.	c #1D1D1D",
"1.	c #6E6E6D",
"2.	c #979796",
"3.	c #7B7B7B",
"4.	c #8B8B8B",
"5.	c #EBECEB",
"6.	c #E7E7E7",
"7.	c #ACADAC",
"8.	c #DEDEDD",
"9.	c #E4E4E4",
"0.	c #979897",
"a.	c #6C6C6C",
"b.	c #6F706E",
"c.	c #D0D0D0",
"d.	c #262626",
"e.	c #E5E6E6",
"f.	c #D0D1CF",
"g.	c #DCDCDC",
"h.	c #D4D4D4",
"i.	c #C4C4C4",
"j.	c #C7C8C7",
"k.	c #252526",
"l.	c #8E8E8E",
"m.	c #E0E1E0",
"n.	c #F0F1F0",
"o.	c #949595",
"p.	c #F1F1F0",
"q.	c #1C1C1D",
"r.	c #CBCCCC",
"s.	c #80807F",
"t.	c #E1E1E1",
"u.	c #A8A9A9",
"v.	c #CFD0D0",
"w.	c #E1E2E1",
"x.	c #F2F2F2",
"y.	c #161616",
"z.	c #999999",
"A.	c #C8C8C7",
"B.	c #9A9B9A",
"C.	c #7A7A7A",
"D.	c #A2A3A2",
"E.	c #D7D7D6",
"F.	c #FFFFFE",
"G.	c #9E9E9D",
"H.	c #969796",
"I.	c #949493",
"J.	c #9E9E9E",
"K.	c #969695",
"L.	c #939492",
"M.	c #939392",
"N.	c #B9BAB9",
"O.	c #EFF0EF",
"P.	c #BABBBA",
"Q.	c #F0F0F0",
"R.	c #C9C9C8",
"S.	c #F6F6F5",
"T.	c #B3B3B3",
"U.	c #BEBEBE",
"V.	c #929392",
"W.	c #D8D9D8",
"X.	c #C3C4C3",
"Y.	c #959594",
"Z.	c #9D9E9D",
"`.	c #A7A8A7",
" +	c #F8F9F8",
".+	c #F9FAF9",
"++	c #F4F5F4",
"@+	c #E9EAE8",
"#+	c #F3F4F3",
"$+	c #F1F2F1",
"%+	c #FAFAF9",
"&+	c #FAFBFA",
"*+	c #F8E6AE",
"=+	c #F8E3A3",
"-+	c #F7E3A3",
";+	c #EEDAA0",
">+	c #E7D39C",
",+	c #FDFBF5",
"'+	c #F4D96E",
")+	c #F4D346",
"!+	c #F4D347",
"~+	c #F5D346",
"{+	c #E6C436",
"]+	c #DAB924",
"^+	c #FBF9F0",
"/+	c #FEFFFF",
"(+	c #F5D96D",
"_+	c #F6D862",
":+	c #FDEB9A",
"<+	c #FDEB9B",
"[+	c #F5D654",
"}+	c #DBB923",
"|+	c #E6E3DA",
"1+	c #FEFCF7",
"2+	c #FAF0D4",
"3+	c #FAF0D5",
"4+	c #FAF0D3",
"5+	c #F4D761",
"6+	c #F6D863",
"7+	c #FEEC9D",
"8+	c #FBE792",
"9+	c #FBE488",
"0+	c #F5D550",
"a+	c #DBB825",
"b+	c #E9DDB7",
"c+	c #ECE2C5",
"d+	c #F2E9D1",
"e+	c #F8F5EC",
"f+	c #FCF7E7",
"g+	c #F8DF76",
"h+	c #DBB924",
"i+	c #F2D144",
"j+	c #EFCD40",
"k+	c #F1E6C9",
"l+	c #EFDA96",
"m+	c #EBE0BE",
"n+	c #F3D458",
"o+	c #F4D551",
"p+	c #F7DC6C",
"q+	c #F5D75A",
"r+	c #DBB824",
"s+	c #E9DCB3",
"t+	c #E7D7A7",
"u+	c #E7DCBE",
"v+	c #F4D348",
"w+	c #ECDEB3",
"x+	c #F3D663",
"y+	c #E5E3D9",
"z+	c #E3DBC8",
"A+	c #DAB926",
"B+	c #E2D5B6",
"C+	c #FEFEFC",
"D+	c #F7E7B2",
"E+	c #DAB929",
"F+	c #E2CB82",
"G+	c #F9EECC",
"H+	c #F6E19B",
"I+	c #F1DB94",
"J+	c #F0D984",
"K+	c #EDCA3D",
"L+	c #E4CA6F",
"M+	c #DEC988",
"N+	c #E3D4A7",
"O+	c #E8E2CF",
"P+	c #EFCD3F",
"Q+	c #E0D4B3",
"R+	c #F7F5ED",
"S+	c #F9F0D5",
"T+	c #F6E095",
"U+	c #E5C335",
"V+	c #E3C767",
"W+	c #E2D8BF",
"X+	c #E4E0D6",
"Y+	c #F4F4F4",
"Z+	c #F8E8B3",
"`+	c #DEBC29",
" @	c #DDC475",
".@	c #E5E7E5",
"+@	c #EADAAD",
"@@	c #DBB925",
"#@	c #DDC476",
"$@	c #FBF9F3",
"%@	c #F1E8CE",
"&@	c #E4CE8C",
"*@	c #DDC062",
"=@	c #E2D7BE",
"-@	c #F2EEE5",
";@	c #F5F0E0",
">@	c #EFE3C5",
",@	c #FBFAF4",
"'@	c #F4EBD4",
")@	c #EBE1C9",
"!@	c #E3D9C0",
"~@	c #E9E6DA",
"{@	c #FDFDFC",
"                                                                                                                                                                                                ",
"                                                                                                                                                                                                ",
"                                                                                                                                                                                                ",
"                                                                                                                                                                                                ",
"                                                                                                                                                                                                ",
"                                                                                                                                                                                                ",
"                                                                                                                                                                                                ",
"                                                                                                                                                                                                ",
"                                                                                                                                                                                                ",
"                                                                                                                                                                                                ",
"                                                                                                                                                                                                ",
"                                                                                                                                                                                                ",
"                                                                                                                                                                                                ",
"                              . + @       # $ $ % &     * $ $ $ $ =     - % ;     > + $ $ ,         ' )         ! % $ $ ~ { $ $ $ ] ^ $ /         ( $ $ _   : $ $ < [                           ",
"                              } | 1 2     # + + + 3 4 5 6 7 8 9 0 a 5 b - 0 c d @ > | + + e f       g h i 2     j 0 + + k ] + + + l , + m 5 n     o + + p d q + + r d s                         ",
"                              } | t u     # % + + v k | w   x y | + + z - 0 A B f > | + + * C       g D E F     G 0 + + H I + + + J K + + + ^     ( + + L B M + + N B O                         ",
"                              } | t u   P Q + + + v k | R u S T U + + V W 0 A B f X | + + * C       g D E F     j 0 + + H I + + + J K + Y Z `  ...( + + +.B @.+ + N B O                         ",
"                              #.$.%.&.s *.+ + =.-.;.>.| ,.B '.- U + + ).l 0 A B f > | + + * C       g D E u !...G 0 + + H I + + + ~.K + M B {.].!./ + + L B @.+ + N B O                         ",
"                              ^./.% (._.% + + :.E B k | ,.B '.- U + + ).l 0 A B f > | + + * C       g D E <._.[.G 0 + + H I + + + ~.K + M B }.W _.|.+ + 1.B M + + N B O                         ",
"                                # 2.3.+ + =.4.: B 5.6.| ,.B '.- U + + ).l 0 A B f > | + + * C       g D E 7.+ 8.9.0 + + H I + + + ~.K + M B 2 > 0.a.+ + b.B M + + N B O                         ",
"                                    c.+ + d.E B B - d | ,.B '.- U + + ).l 0 A B f > | + + * C       g D E <.+ H & 0 + + H I + + + ~.K + M B 2     ( + + 1.B @.+ + N B O                         ",
"                                    c.+ + d.e.5.n # - | ,.B '.- U + + ).l 0 A B f X | + + * C       g D E <.+ f.& 0 + + H I + + + ~.K + M B 2     o + + L B g.h.i.j.B O                         ",
"                                    c.+ + k.B u     d =.l.m.n.> U $ (.).l (.o.m.p.^ | q.(.r.C       s.D t.u._.V v.0 $ (.H I + + + ~.K + M B 2     ( + + +.B x d %.w.B x.                        ",
"                                    c.+ + d.B u         * U y.U 0 z.C B C   A.y.y.y.+ B.6.E C       ..> y.7.^.C.y.+ D.E E E.+ + + c.K + @.B 2     ( + + +.B @.y.y.< ^.F.                        ",
"                                    t.G.H.I.E u         y J.K.L.M.N.B 5.O.  g.J.K.M.M.P.B &.Q.        4 J.R.S.T.w M.U.B &.] J.. V.W.e J.X.B 2     K J.Y.; B ;.Z.Q `.n !.                        ",
"                                        X B B u             x B B B B d         x B B B B  +              4 B 2 @ B E B .+    ++B B @+  #+B 2         j B B $+  j B B x.                        ",
"                                        .+n - %+            /.- - - n #         /.- d - n @               s n @ ..n - d @     s - n f   s d @         f - d &+  f - n s                         ",
"                                                                                                                                                                                                ",
"                                                                                                                                                                                                ",
"                                                                                                                                                                                                ",
"                                                                                                                                                                                                ",
"                                                                                                                                                                                                ",
"                                                                                                                                                                                                ",
"                                                                                                                                                                                                ",
"                                                                                                                                                                                                ",
"                                                                                                                                                                                                ",
"                                                                                                                                                                                                ",
"                                                                                ..*+=+=+=+=+-+=+=+;+>+,+                                                                                        ",
"                                                                                [ '+)+!+!+!+)+)+~+{+]+^+                                                                                        ",
"                                                                                /+(+_+:+<+<+[+)+~+{+}+|+&.                                                                                      ",
"                                                                          1+2+3+4+5+6+7+8+9+0+)+~+{+a+b+c+d+e+                                                                                  ",
"                                                                          f+~+!+)+)+6+7+g+)+)+)+~+{+h+i+j+h+k+                                                                                  ",
"                                                                          f+)+l+m+n+o+p+q+)+)+)+~+{+r+s+t+h+u+O.@                                                                               ",
"                                                                          f+v+w+B x+)+)+)+)+)+)+~+{+h+y+z+A+B+B @                                                                               ",
"                                                                          F.C+D+v+)+)+)+)+)+)+)+~+{+h+E+F+^.F B @                                                                               ",
"                                                                            F.G+H+I+J+)+)+)+)+i+K+L+M+M+N+'.$+T @                                                                               ",
"                                                                                  @+O+)+)+)+)+P+h+Q+B B e.B S                                                                                   ",
"                                                                                  '.R+S+T+)+U+V+W+X+B Y+n n s                                                                                   ",
"                                                                                        Z+)+`+ @.@B B s                                                                                         ",
"                                                                                        +@@@h+#@B #+..                                                                                          ",
"                                                                                    $@%@&@h+h+*@=@-@                                                                                            ",
"                                                                                    ;@r+h+h+h+h+h+>@                                                                                            ",
"                                                                                    ,@'@)@!@!@!@!@~@u {@                                                                                        ",
"                                                                                        x.B B B B B E #                                                                                         ",
"                                                                                                                                                                                                ",
"                                                                                                                                                                                                ",
"                                                                                                                                                                                                ",
"                                                                                                                                                                                                ",
"                                                                                                                                                                                                ",
"                                                                                                                                                                                                ",
"                                                                                                                                                                                                ",
"                                                                                                                                                                                                ",
"                                                                                                                                                                                                ",
"                                                                                                                                                                                                "};
